# OBJ written from C:\Users\Ben\Desktop\Car Parts\rocket_001.obj
# Units	meters

o Rocket
v -0.0456077 8.9407e-008 0.388379
v -0.0322496 -0.0322498 0.388379
v 1.11759e-008 -0.0456077 0.388379
v 0.0322496 -0.0322498 0.388379
v 0.0456078 8.9407e-008 0.388379
v 0.0322496 0.0322495 0.388379
v 1.11759e-008 0.0456077 0.388379
v -0.0322496 0.0322495 0.388379
v 1.11759e-008 8.9407e-008 0.408332
v -0.142524 8.9407e-008 0.208798
v -0.10078 -0.10078 0.208798
v 1.11759e-008 -0.142524 0.208798
v 0.10078 -0.10078 0.208798
v 0.142524 8.9407e-008 0.208798
v 0.10078 0.10078 0.208798
v 1.11759e-008 0.142524 0.208798
v -0.10078 0.10078 0.208798
v 1.11759e-008 0.11476 0.29175
v 0.081148 0.081148 0.29175
v 0.114761 8.9407e-008 0.29175
v 0.081148 -0.0811481 0.29175
v 1.11759e-008 -0.11476 0.29175
v -0.0811479 -0.0811481 0.29175
v -0.114761 8.9407e-008 0.29175
v -0.0811479 0.081148 0.29175
v -0.0845198 8.9407e-008 -0.361299
v -0.0597645 -0.0597646 -0.361299
v 1.11759e-008 -0.0845199 -0.361299
v 0.0597645 -0.0597646 -0.361299
v 0.0845199 8.9407e-008 -0.361299
v 0.0597645 0.0597644 -0.361299
v 1.11759e-008 0.0845198 -0.361299
v -0.0597645 0.0597644 -0.361299
v -0.105809 8.9407e-008 -0.408332
v -0.074818 -0.074818 -0.408332
v 1.11759e-008 -0.105809 -0.408332
v 0.074818 -0.074818 -0.408332
v 0.105809 8.9407e-008 -0.408332
v 0.074818 0.0748179 -0.408332
v 1.11759e-008 0.105808 -0.408332
v -0.074818 0.0748179 -0.408332
v -0.0724869 8.9407e-008 -0.408332
v -0.051256 -0.051256 -0.408332
v 1.11759e-008 -0.072487 -0.408332
v 0.051256 -0.051256 -0.408332
v 0.072487 8.9407e-008 -0.408332
v 0.051256 0.0512558 -0.408332
v 1.11759e-008 0.072487 -0.408332
v -0.051256 0.0512558 -0.408332
v -0.0274409 8.9407e-008 -0.33878
v -0.0194037 -0.0194037 -0.33878
v 1.11759e-008 -0.0274412 -0.33878
v 0.0194037 -0.0194037 -0.33878
v 0.027441 8.9407e-008 -0.33878
v 0.0194037 0.0194035 -0.33878
v 1.11759e-008 0.027441 -0.33878
v -0.0194037 0.0194035 -0.33878
v -0.117867 8.9407e-008 -0.361299
v -0.10078 -0.10078 -0.336642
v -0.0833449 -0.0833449 -0.361299
v 1.11759e-008 -0.117867 -0.361299
v 0.10078 -0.10078 -0.336642
v 0.083345 -0.0833449 -0.361299
v 0.117868 8.9407e-008 -0.361299
v 0.10078 0.10078 -0.336642
v 0.083345 0.0833449 -0.361299
v 1.11759e-008 0.117867 -0.361299
v -0.10078 0.10078 -0.336642
v -0.0833449 0.0833449 -0.361299
v 0.10078 0.10078 -0.319597
v 0.10078 -0.10078 -0.319597
v -0.10078 -0.10078 -0.319597
v -0.10078 0.10078 -0.319597
v 0.10078 0.10078 -0.166192
v 0.10078 -0.10078 -0.166192
v -0.10078 -0.10078 -0.166192
v -0.10078 0.10078 -0.166192
v 0.10078 0.10078 -0.183237
v 0.10078 -0.10078 -0.183237
v -0.10078 -0.10078 -0.183237
v -0.10078 0.10078 -0.183237
v 0.00855891 0.142524 -0.319597
v -0.00855889 0.142524 -0.319597
v 0.142524 0.00855896 -0.319597
v 0.142524 -0.00855902 -0.319597
v 0.00855891 -0.142524 -0.319597
v -0.00855889 -0.142524 -0.319597
v -0.142524 -0.00855902 -0.319597
v -0.142524 0.00855896 -0.319597
v 0.00855891 0.142524 -0.183237
v -0.00855889 0.142524 -0.183237
v 0.142524 0.00855896 -0.183237
v 0.142524 -0.00855902 -0.183237
v 0.00855891 -0.142524 -0.183237
v -0.00855889 -0.142524 -0.183237
v -0.142524 -0.00855902 -0.183237
v -0.142524 0.00855896 -0.183237
v 0.00855891 0.200264 -0.319597
v -0.00855889 0.200264 -0.319597
v 0.200264 0.00855896 -0.319597
v 0.200264 -0.00855902 -0.319597
v 0.00855891 -0.200264 -0.319597
v -0.00855889 -0.200264 -0.319597
v -0.200264 -0.00855902 -0.319597
v -0.200264 0.00855896 -0.319597
v 0.00855891 0.200264 -0.290962
v -0.00855889 0.200264 -0.290962
v 0.200264 0.00855896 -0.290962
v 0.200264 -0.00855902 -0.290962
v 0.00855891 -0.200264 -0.290962
v -0.00855889 -0.200264 -0.290962
v -0.200264 -0.00855902 -0.290962
v -0.200264 0.00855896 -0.290962
v 1.11759e-008 0.142524 -0.166192
v 1.11759e-008 0.142524 -0.336642
v 0.142524 8.9407e-008 -0.166192
v 1.11759e-008 -0.142524 -0.166192
v -0.142524 8.9407e-008 -0.166192
v 1.11759e-008 0.142524 -0.183237
v 1.11759e-008 0.200264 -0.290962
v 1.11759e-008 0.200264 -0.319597
v 1.11759e-008 0.142524 -0.319597
v 1.11759e-008 -0.200264 -0.319597
v 1.11759e-008 -0.142524 -0.319597
v 1.11759e-008 -0.142524 -0.183237
v 1.11759e-008 -0.200264 -0.290962
v 0.142524 8.9407e-008 -0.319597
v 0.200264 8.9407e-008 -0.319597
v 0.200264 8.9407e-008 -0.290962
v 0.142524 8.9407e-008 -0.183237
v -0.142524 8.9407e-008 -0.319597
v -0.200264 8.9407e-008 -0.319597
v -0.200264 8.9407e-008 -0.290962
v -0.142524 8.9407e-008 -0.183237
v 1.11759e-008 8.9407e-008 -0.33878
v -0.142524 8.9407e-008 -0.336642
v 1.11759e-008 -0.142524 -0.336642
v 0.142524 8.9407e-008 -0.336642
vn 0.365604 0.882645 0.295418
vn 0.319217 0.77066 0.551528
vn 0.882645 0.365604 0.295418
vn 0.77066 0.319218 0.551528
vn 0.882645 -0.365604 0.295418
vn 0.770661 -0.319217 0.551528
vn 0.365602 -0.882645 0.29542
vn 0.319216 -0.770662 0.551526
vn -0.365602 -0.882645 0.295418
vn -0.319216 -0.770661 0.551527
vn -0.882645 -0.365603 0.295419
vn -0.770661 -0.319217 0.551527
vn -0.882645 0.365604 0.295418
vn -0.77066 0.319218 0.551527
vn -0.365604 0.882644 0.295419
vn -0.319217 0.770661 0.551528
vn 0.372045 0.372047 0.85039
vn -0.372045 0.372047 0.85039
vn 0.372045 -0.372045 0.850391
vn -0.372046 -0.372045 0.850391
vn -0.353056 0.852354 0.385803
vn 0.353056 0.852353 0.385806
vn 0.852353 0.353057 0.385805
vn 0.852353 -0.353056 0.385806
vn 0.353057 -0.852352 0.385806
vn -0.353057 -0.852352 0.385806
vn -0.852353 -0.353056 0.385806
vn -0.852352 0.353057 0.385806
vn 0 0 -1
vn -0.792793 -0.328387 -0.51346
vn 0.792793 -0.328387 -0.51346
vn -0.792794 0.328385 -0.513461
vn 0.328389 -0.792792 -0.51346
vn -0.328386 0.792793 -0.513461
vn 0.328386 0.792793 -0.513461
vn -0.328389 -0.792792 -0.51346
vn 0.792794 0.328385 -0.51346
vn 0.412376 0.911014 0
vn 0.911013 0.412377 0
vn 0.911013 -0.412377 0
vn 0.412375 -0.911014 0
vn -0.412376 0.911014 0
vn -0.412375 -0.911014 0
vn -0.911014 -0.412376 0
vn -0.911014 0.412376 0
vn 0 -1 0
vn 0 1 0
vn 1 0 0
vn -1 0 0
vn 0.375808 0.907281 0.188706
vn -0.382684 0.923879 0
vn 0.281084 0.678596 -0.678601
vn -0.281084 0.678596 -0.678601
vn 0.382684 0.923879 0
vn -0.375808 0.907281 -0.188706
vn 0.923879 0.382684 0
vn 0.90728 -0.375808 0.188711
vn 0.382682 -0.92388 0
vn -0.375807 -0.907281 0.188706
vn -0.92388 -0.382683 -0
vn -0.907281 0.375808 0.188706
vn 0 0.881376 0.472416
vn 0 -0.881375 0.472417
vn 0.881376 0 0.472416
vn 0.881376 0 0.472416
vn -0.881376 0 0.472416
vn -0.881376 0 0.472416
vn -0.678598 -0.281084 -0.678599
vn -0.678598 0.281085 -0.678599
vn -0.90728 -0.375807 -0.188711
vn -0.923879 0.382684 0
vn -0.281083 -0.678597 -0.6786
vn 0.281083 -0.678597 -0.6786
vn 0.375807 -0.907281 -0.188706
vn -0.382682 -0.92388 0
vn 0.678597 0.281085 -0.678599
vn 0.678598 -0.281084 -0.678599
vn 0.90728 0.375809 -0.188706
vn 0.92388 -0.382683 0
vn -0.382684 0.923879 0
vn -0.92388 -0.382683 -0
vn 0.92388 -0.382683 0
vt 0.702759 0.56812
vt 0.701952 0.54721
vt 0.718862 0.547389
vt 0.719554 0.564964
vt 0.743639 0.548236
vt 0.743175 0.557599
vt 0.705826 0.589312
vt 0.723267 0.582605
vt 0.746871 0.56503
vt 0.710584 0.611034
vt 0.729982 0.599857
vt 0.750627 0.572841
vt 0.715426 0.633693
vt 0.741791 0.614972
vt 0.757544 0.575456
vt 0.712296 0.484715
vt 0.718816 0.462599
vt 0.742921 0.481901
vt 0.731555 0.49594
vt 0.759335 0.520894
vt 0.751971 0.523545
vt 0.706832 0.505737
vt 0.724528 0.512662
vt 0.747676 0.531299
vt 0.703287 0.526473
vt 0.720308 0.529806
vt 0.743534 0.538906
vt 0.754315 0.548341
vt 0.571079 0.54659
vt 0.570463 0.532112
vt 0.580137 0.528956
vt 0.581116 0.546156
vt 0.569896 0.561146
vt 0.579843 0.563129
vt 0.565472 0.57498
vt 0.575686 0.579663
vt 0.557924 0.587514
vt 0.568801 0.595209
vt 0.546222 0.598228
vt 0.560098 0.607676
vt 0.559345 0.505027
vt 0.548424 0.493171
vt 0.561318 0.48502
vt 0.569739 0.497039
vt 0.566459 0.518055
vt 0.576136 0.51232
vt 0.542849 0.588232
vt 0.552541 0.581297
vt 0.554008 0.511009
vt 0.54427 0.503486
vt 0.56017 0.521718
vt 0.563739 0.533825
vt 0.564904 0.546476
vt 0.563252 0.559119
vt 0.559337 0.571043
vt 0.544665 0.55623
vt 0.546717 0.551475
vt 0.546842 0.54078
vt 0.545035 0.535896
vt 0.541399 0.559774
vt 0.547485 0.546155
vt 0.537204 0.56147
vt 0.541709 0.53219
vt 0.537577 0.530338
vt 0.586395 0.564627
vt 0.581655 0.582783
vt 0.575923 0.600409
vt 0.565653 0.616645
vt 0.5766 0.491955
vt 0.56671 0.476029
vt 0.582709 0.50966
vt 0.586763 0.527715
vt 0.587013 0.546186
vt 0.597413 0.546828
vt 0.623687 0.548472
vt 0.622865 0.569918
vt 0.59621 0.566453
vt 0.621126 0.591199
vt 0.592827 0.586028
vt 0.592438 0.586816
vt 0.621364 0.594164
vt 0.618932 0.615341
vt 0.586893 0.606337
vt 0.616656 0.636683
vt 0.57843 0.626122
vt 0.596621 0.526108
vt 0.623325 0.524083
vt 0.623562 0.545672
vt 0.597474 0.545763
vt 0.579617 0.467027
vt 0.618356 0.455403
vt 0.620434 0.477668
vt 0.587965 0.486034
vt 0.622276 0.499535
vt 0.593147 0.505317
vt 0.593497 0.506691
vt 0.622146 0.50229
vt 0.583847 0.44134
vt 0.570248 0.413848
vt 0.583672 0.408655
vt 0.584093 0.414604
vt 0.601363 0.413936
vt 0.587634 0.441346
vt 0.58752 0.414638
vt 0.587952 0.408643
vt 0.6951 0.431415
vt 0.667694 0.445177
vt 0.66243 0.431788
vt 0.668365 0.431321
vt 0.667591 0.41404
vt 0.69508 0.427629
vt 0.668373 0.427892
vt 0.662371 0.427505
vt 0.564765 0.411631
vt 0.573537 0.441019
vt 0.555119 0.421709
vt 0.551341 0.417073
vt 0.57077 0.443636
vt 0.541951 0.433076
vt 0.548212 0.420044
vt 0.552591 0.424053
vt 0.60702 0.420238
vt 0.634482 0.40653
vt 0.639662 0.420028
vt 0.633741 0.42046
vt 0.634418 0.43784
vt 0.607023 0.424046
vt 0.63371 0.423907
vt 0.639674 0.424343
vt 0.626939 0.547136
vt 0.62621 0.570181
vt 0.626642 0.523946
vt 0.593928 0.546253
vt 0.59293 0.565943
vt 0.593334 0.526568
vt 0.624931 0.593065
vt 0.623052 0.615943
vt 0.622119 0.639113
vt 0.624151 0.453092
vt 0.624502 0.477027
vt 0.625844 0.500625
vt 0.668371 0.429608
vt 0.695098 0.429522
vt 0.649053 0.429806
vt 0.649053 0.42794
vt 0.662354 0.429645
vt 0.649059 0.431665
vt 0.652291 0.422315
vt 0.652269 0.424187
vt 0.639697 0.422188
vt 0.652345 0.420445
vt 0.633725 0.422183
vt 0.607016 0.422142
vt 0.645349 0.429816
vt 0.698794 0.429503
vt 0.603292 0.422145
vt 0.585815 0.408601
vt 0.58408 0.395179
vt 0.585936 0.39521
vt 0.587799 0.39525
vt 0.58574 0.441351
vt 0.585805 0.414624
vt 0.549759 0.418536
vt 0.53981 0.410533
vt 0.541207 0.409289
vt 0.542583 0.408021
vt 0.572157 0.442332
vt 0.553855 0.422881
vt 0.585736 0.445044
vt 0.574716 0.445038
vt 0.540778 0.546008
vt 0.58965 0.507112
vt 0.58426 0.487725
vt 0.538706 0.40653
vt 0.57404 0.468314
vt 0.58323 0.604692
vt 0.572862 0.624638
vt 0.656014 0.42239
vt 0.588905 0.58522
vt 0.586005 0.39151
mtllib rocket_001.mtl
usemtl UV
g Default
f 15/1/1 16/2/1 18/3/1 19/4/1
f 18/3/2 7/5/2 6/6/2 19/4/2
f 14/7/3 15/1/3 19/4/3 20/8/3
f 19/4/4 6/6/4 5/9/4 20/8/4
f 13/10/5 14/7/5 20/8/5 21/11/5
f 20/8/6 5/9/6 4/12/6 21/11/6
f 12/13/7 13/10/7 21/11/7 22/14/7
f 21/11/8 4/12/8 3/15/8 22/14/8
f 11/16/9 12/17/9 22/18/9 23/19/9
f 22/18/10 3/20/10 2/21/10 23/19/10
f 10/22/11 11/16/11 23/19/11 24/23/11
f 23/19/12 2/21/12 1/24/12 24/23/12
f 17/25/13 10/22/13 24/23/13 25/26/13
f 24/23/14 1/24/14 8/27/14 25/26/14
f 16/2/15 17/25/15 25/26/15 18/3/15
f 25/26/16 8/27/16 7/5/16 18/3/16
f 9/28/17 5/9/17 6/6/17 7/5/17
f 9/28/18 7/5/18 8/27/18 1/24/18
f 9/28/19 3/15/19 4/12/19 5/9/19
f 9/28/20 1/24/20 2/21/20 3/20/20
f 40/29/21 41/30/21 33/31/21 32/32/21
f 39/33/22 40/29/22 32/32/22 31/34/22
f 38/35/23 39/33/23 31/34/23 30/36/23
f 37/37/24 38/35/24 30/36/24 29/38/24
f 36/39/25 37/37/25 29/38/25 28/40/25
f 35/41/26 36/42/26 28/43/26 27/44/26
f 34/45/27 35/41/27 27/44/27 26/46/27
f 41/30/28 34/45/28 26/46/28 33/31/28
f 36/39/29 44/47/29 45/48/29 37/37/29
f 36/42/29 35/41/29 43/49/29 44/50/29
f 34/45/29 42/51/29 43/49/29 35/41/29
f 41/30/29 49/52/29 42/51/29 34/45/29
f 41/30/29 40/29/29 48/53/29 49/52/29
f 39/33/29 47/54/29 48/53/29 40/29/29
f 39/33/29 38/35/29 46/55/29 47/54/29
f 38/35/29 37/37/29 45/48/29 46/55/29
f 47/54/30 46/55/30 54/56/30 55/57/30
f 49/52/31 57/58/31 50/59/31 42/51/31
f 46/55/32 45/48/32 53/60/32 54/56/32
f 49/52/33 48/53/33 56/61/33 57/58/33
f 45/48/34 44/47/34 52/62/34 53/60/34
f 43/49/35 51/63/35 52/64/35 44/50/35
f 48/53/36 47/54/36 55/57/36 56/61/36
f 43/49/37 42/51/37 50/59/37 51/63/37
f 66/65/29 64/66/29 30/36/29 31/34/29
f 63/67/29 29/38/29 30/36/29 64/66/29
f 63/67/29 61/68/29 28/40/29 29/38/29
f 60/69/29 27/44/29 28/43/29 61/70/29
f 60/69/29 58/71/29 26/46/29 27/44/29
f 69/72/29 33/31/29 26/46/29 58/71/29
f 69/72/29 67/73/29 32/32/29 33/31/29
f 66/65/29 31/34/29 32/32/29 67/73/29
f 82/74/38 90/75/38 78/76/38 70/77/38
f 70/77/39 78/76/39 92/78/39 84/79/39
f 85/80/40 93/81/40 79/82/40 71/83/40
f 71/83/41 79/82/41 94/84/41 86/85/41
f 73/86/42 81/87/42 91/88/42 83/89/42
f 87/90/43 95/91/43 80/92/43 72/93/43
f 72/93/44 80/92/44 96/94/44 88/95/44
f 89/96/45 97/97/45 81/87/45 73/86/45
f 93/98/46 85/99/46 101/100/46 109/101/46
f 84/102/47 92/103/47 108/104/47 100/105/47
f 90/106/48 82/107/48 98/108/48 106/109/48
f 83/110/49 91/111/49 107/112/49 99/113/49
f 88/114/46 96/115/46 112/116/46 104/117/46
f 97/118/47 89/119/47 105/120/47 113/121/47
f 95/122/49 87/123/49 103/124/49 111/125/49
f 86/126/48 94/127/48 110/128/48 102/129/48
f 114/130/50 74/131/50 78/76/50 90/75/50
f 77/132/51 114/130/51 91/88/51 81/87/51
f 115/133/52 65/134/52 66/65/52 67/73/52
f 115/133/53 67/73/53 69/72/53 68/135/53
f 65/134/54 115/133/54 82/74/54 70/77/54
f 115/133/55 68/135/55 73/86/55 83/89/55
f 74/131/56 116/136/56 92/78/56 78/76/56
f 116/136/57 75/137/57 79/82/57 93/81/57
f 75/137/58 117/138/58 94/84/58 79/82/58
f 117/139/59 76/140/59 80/92/59 95/91/59
f 76/140/60 118/141/60 96/94/60 80/92/60
f 118/141/61 77/132/61 81/87/61 97/97/61
f 120/142/62 107/112/62 91/111/62 119/143/62
f 119/143/62 90/106/62 106/109/62 120/142/62
f 122/144/29 83/145/29 99/113/29 121/146/29
f 121/146/29 98/108/29 82/147/29 122/144/29
f 124/148/29 86/149/29 102/129/29 123/150/29
f 123/150/29 103/124/29 87/151/29 124/148/29
f 126/152/63 110/128/63 94/127/63 125/153/63
f 125/153/63 95/122/63 111/125/63 126/152/63
f 123/150/46 102/129/46 110/128/46 126/152/46
f 126/152/46 111/125/46 103/124/46 123/150/46
f 121/146/47 99/113/47 107/112/47 120/142/47
f 120/142/47 106/109/47 98/108/47 121/146/47
f 115/154/47 83/145/47 122/144/47 82/147/47
f 114/155/47 90/106/47 119/143/47 91/111/47
f 117/156/46 95/122/46 125/153/46 94/127/46
f 128/157/29 101/100/29 85/158/29 127/159/29
f 127/159/29 84/160/29 100/105/29 128/157/29
f 130/161/64 93/98/64 109/101/64 129/162/64
f 129/162/65 108/104/65 92/103/65 130/161/65
f 132/163/29 105/120/29 89/164/29 131/165/29
f 131/165/29 88/166/29 104/117/29 132/163/29
f 134/167/66 97/118/66 113/121/66 133/168/66
f 133/168/67 112/116/67 96/115/67 134/167/67
f 133/168/49 113/121/49 105/120/49 132/163/49
f 132/163/49 104/117/49 112/116/49 133/168/49
f 129/162/48 109/101/48 101/100/48 128/157/48
f 128/157/48 100/105/48 108/104/48 129/162/48
f 116/169/48 93/98/48 130/161/48 92/103/48
f 118/170/49 97/118/49 134/167/49 96/115/49
f 135/171/29 54/56/29 53/60/29 52/62/29
f 135/171/29 52/64/29 51/63/29 50/59/29
f 135/171/29 50/59/29 57/58/29 56/61/29
f 135/171/29 56/61/29 55/57/29 54/56/29
f 136/172/68 58/71/68 60/69/68 59/173/68
f 136/172/69 68/135/69 69/72/69 58/71/69
f 136/172/70 59/173/70 72/93/70 88/95/70
f 68/135/71 136/172/71 89/96/71 73/86/71
f 136/174/49 88/166/49 131/165/49 89/164/49
f 59/173/72 60/69/72 61/70/72 137/175/72
f 62/176/73 137/177/73 61/68/73 63/67/73
f 137/177/74 62/176/74 71/83/74 86/85/74
f 59/173/75 137/175/75 87/90/75 72/93/75
f 137/178/46 86/149/46 124/148/46 87/151/46
f 138/179/76 64/66/76 66/65/76 65/134/76
f 138/179/77 62/176/77 63/67/77 64/66/77
f 138/179/78 65/134/78 70/77/78 84/79/78
f 62/176/79 138/179/79 85/80/79 71/83/79
f 138/180/48 84/160/48 127/159/48 85/158/48
f 17/25/80 16/2/80 114/130/80 77/132/80
f 11/16/81 10/22/81 118/141/81 76/140/81
f 12/17/75 11/16/75 76/140/75 117/139/75
f 13/10/58 12/13/58 117/138/58 75/137/58
f 10/22/71 17/25/71 77/132/71 118/141/71
f 16/2/54 15/1/54 74/131/54 114/130/54
f 14/7/82 13/10/82 75/137/82 116/136/82
f 15/1/56 14/7/56 116/136/56 74/131/56
