# OBJ written from C:\Users\Ben\Desktop\Car Game\Local Assets\Colliders\c_wheelLeft_001.obj
# Units	meters

o collider_wheelLeft
v -0.129366 0 0.6125
v -0.129366 -0.234394 0.565876
v -0.129366 -0.433103 0.433103
v -0.129366 -0.565876 0.234394
v -0.129366 -0.6125 -2.04003e-016
v -0.129366 -0.565876 -0.234394
v -0.129366 -0.433103 -0.433103
v -0.129366 -0.234394 -0.565876
v -0.129366 0 -0.6125
v -0.129366 0.234394 -0.565876
v -0.129366 0.433103 -0.433103
v -0.129366 0.565876 -0.234394
v -0.129366 0.6125 -2.04003e-016
v -0.129366 0.565876 0.234394
v -0.129366 0.433103 0.433103
v -0.129366 0.234394 0.565876
v 0.404234 0 0.6125
v 0.404234 -0.234394 0.565876
v 0.404234 -0.433103 0.433103
v 0.404234 -0.565876 0.234394
v 0.404234 -0.6125 2.04003e-016
v 0.404234 -0.565876 -0.234394
v 0.404234 -0.433103 -0.433103
v 0.404234 -0.234394 -0.565876
v 0.404234 0 -0.6125
v 0.404234 0.234394 -0.565876
v 0.404234 0.433103 -0.433103
v 0.404234 0.565876 -0.234394
v 0.404234 0.6125 2.04003e-016
v 0.404234 0.565876 0.234394
v 0.404234 0.433103 0.433103
v 0.404234 0.234394 0.565876
v 0.404234 0 2.77556e-017
v -0.129366 0 -2.77556e-017
vn 0 -0.19509 0.980785
vn 0 -0.55557 0.83147
vn 0 -0.83147 0.55557
vn 0 -0.980785 0.19509
vn 1.49172e-016 -0.980785 -0.19509
vn -0 -0.83147 -0.55557
vn -0 -0.55557 -0.83147
vn -0 -0.19509 -0.980785
vn 0 0.19509 -0.980785
vn 0 0.55557 -0.83147
vn 0 0.83147 -0.55557
vn 0 0.980785 -0.19509
vn -1.49172e-016 0.980785 0.19509
vn 0 0.83147 0.55557
vn 0 0.55557 0.83147
vn 0 0.19509 0.980785
vn -1 0 0
vn 1 0 0
vt 0 0.5
vt 0 0
vt 0.0625 0
vt 0.0625 0.5
vt 0.125 0
vt 0.125 0.5
vt 0.1875 0
vt 0.1875 0.5
vt 0.25 0
vt 0.25 0.5
vt 0.3125 0
vt 0.3125 0.5
vt 0.375 0
vt 0.375 0.5
vt 0.4375 0
vt 0.4375 0.5
vt 0.5 0
vt 0.5 0.5
vt 0.5625 0
vt 0.5625 0.5
vt 0.625 0
vt 0.625 0.5
vt 0.6875 0
vt 0.6875 0.5
vt 0.75 0
vt 0.75 0.5
vt 0.8125 0
vt 0.8125 0.5
vt 0.875 0
vt 0.875 0.5
vt 0.9375 0
vt 0.9375 0.5
vt 1 0
vt 1 0.5
vt 1.04935 0.873993
vt 0.995196 0.798773
vt 0.995196 0.701227
vt 0.957867 0.611107
vt 0.701227 0.995196
vt 0.798773 0.995196
vt 0.888893 0.957867
vt 0.542133 0.888893
vt 0.611107 0.957867
vt 0.504804 0.701227
vt 0.504804 0.798773
vt 0.611107 0.542133
vt 0.542133 0.611107
vt 0.798773 0.504804
vt 0.701227 0.504804
vt 0.888893 0.542133
vt 0.957867 0.888893
vt 0.416382 0.75
vt 0.201227 0.995196
vt 0.111107 0.957867
vt 0.0421326 0.888893
vt 0.00480368 0.798773
vt 0.00480368 0.701227
vt 0.0421326 0.611107
vt 0.111107 0.542133
vt 0.201227 0.504804
vt 0.298773 0.504804
vt 0.388893 0.542133
vt 0.457867 0.611107
vt 0.495196 0.798773
vt 0.457867 0.888893
vt 0.388893 0.957867
vt 0.495196 0.701227
vt 0.298773 0.995196
mtllib c_wheelLeft_001.mtl
usemtl Default
g Default
f 17/1/1 1/2/1 2/3/1 18/4/1
f 18/4/2 2/3/2 3/5/2 19/6/2
f 19/6/3 3/5/3 4/7/3 20/8/3
f 4/7/4 5/9/4 21/10/4 20/8/4
f 21/10/5 5/9/5 6/11/5 22/12/5
f 22/12/6 6/11/6 7/13/6 23/14/6
f 23/14/7 7/13/7 8/15/7 24/16/7
f 24/16/8 8/15/8 9/17/8 25/18/8
f 25/18/9 9/17/9 10/19/9 26/20/9
f 26/20/10 10/19/10 11/21/10 27/22/10
f 27/22/11 11/21/11 12/23/11 28/24/11
f 28/24/12 12/23/12 13/25/12 29/26/12
f 13/25/13 14/27/13 30/28/13 29/26/13
f 30/28/14 14/27/14 15/29/14 31/30/14
f 31/30/15 15/29/15 16/31/15 32/32/15
f 32/32/16 16/31/16 1/33/16 17/34/16
f 34/35/17 1/36/17 16/37/17 15/38/17
f 34/35/17 5/39/17 4/40/17 3/41/17
f 34/35/17 7/42/17 6/43/17 5/39/17
f 34/35/17 9/44/17 8/45/17 7/42/17
f 34/35/17 11/46/17 10/47/17 9/44/17
f 34/35/17 13/48/17 12/49/17 11/46/17
f 34/35/17 15/38/17 14/50/17 13/48/17
f 34/35/17 3/41/17 2/51/17 1/36/17
f 33/52/18 21/53/18 22/54/18 23/55/18
f 33/52/18 23/55/18 24/56/18 25/57/18
f 33/52/18 25/57/18 26/58/18 27/59/18
f 33/52/18 27/59/18 28/60/18 29/61/18
f 33/52/18 29/61/18 30/62/18 31/63/18
f 33/52/18 17/64/18 18/65/18 19/66/18
f 33/52/18 31/63/18 32/67/18 17/64/18
f 33/52/18 19/66/18 20/68/18 21/53/18
